PathFileType	4	(X/Y/Z)	DARI_DATA/Captury_Subj8_bilateral_squat02.trc
DataRate	CameraRate	NumFrames	NumMarkers	Units	OrigDataRate	OrigDataStartFrame	OrigNumFrames
60	60	4	47	mm	59.99879837036133	210	239
Frame#	Time		LeftUpLeg_		RightUpLeg_		LeftLeg_		RightLeg_		LeftFoot_		RightFoot_		LeftToeBase_		RightToeBase_		Knee_Lateral_r		Knee_Lateral_l		Ankle_Lateral_r		Ankle_Lateral_l		LeftArm_		LeftForeArm_		LeftHand_		LeftHandEE		RightArm_		RightForeArm_		RightHand_		RightHandEE		Spine_		Spine1_		Spine2_		Spine3_		Spine4_		Spine5_		Spine_x		Spine_y		Spine_z		RASI		LASI		RIPS		LIPS		RTHI		LTHI		RTIB		LTIB		RTOE		LTOE		RHEE		LHEE		RHipAngles		LHipAngles		RKneeAngles		LKneeAngles		RAnkleAngles		LAnkleAngles
			X1	Y1	Z1	X2	Y2	Z2	X3	Y3	Z3	X4	Y4	Z4	X5	Y5	Z5	X6	Y6	Z6	X7	Y7	Z7	X8	Y8	Z8	X9	Y9	Z9	X10	Y10	Z10	X11	Y11	Z11	X12	Y12	Z12	X13	Y13	Z13	X14	Y14	Z14	X15	Y15	Z15	X16	Y16	Z16	X17	Y17	Z17	X18	Y18	Z18	X19	Y19	Z19	X20	Y20	Z20	X21	Y21	Z21	X22	Y22	Z22	X23	Y23	Z23	X24	Y24	Z24	X25	Y25	Z25	X26	Y26	Z26	X27	Y27	Z27	X28	Y28	Z28	X29	Y29	Z29	X30	Y30	Z30	X31	Y31	Z31	X32	Y32	Z32	X33	Y33	Z33	X34	Y34	Z34	X35	Y35	Z35	X36	Y36	Z36	X37	Y37	Z37	X38	Y38	Z38	X39	Y39	Z39	X40	Y40	Z40	X41	Y41	Z41	X42	Y42	Z42	X43	Y43	Z43	X44	Y44	Z44	X45	Y45	Z45	X46	Y46	Z46	X47	Y47	Z47

210	3.48333	-90.33889	927.31250	122.67910	86.57206	919.81647	116.63944	-104.39192	502.83374	90.16595	108.74353	495.67719	84.21935	-121.85709	109.00397	100.65477	132.34827	102.17877	95.11411	-157.49089	39.96374	-10.96201	174.03922	33.79672	-14.79670	156.94002	495.06863	92.40598	-152.87921	501.47025	96.28297	177.40805	106.14268	122.38684	-168.11469	112.21241	125.94981	-144.95898	1414.59790	94.32388	-194.82036	1409.30261	-181.80026	-194.65994	1446.51843	-420.03751	-183.85638	1439.53796	-507.09155	132.49753	1416.50159	99.42709	168.19435	1404.93262	-178.69278	157.37103	1419.89050	-419.11145	152.66121	1408.61987	-506.25870	2.94632	1020.77960	140.47200	4.09153	1114.77454	120.00254	2.38770	1181.98877	128.00143	-4.69067	1266.23853	155.78656	-14.57767	1397.65430	135.86313	-27904771620864.00000	0.00000	-27904805175296.00000	52.71870	1018.67065	138.77280	5.07700	1070.57642	141.07797	4.61821	1020.10187	190.28535	146.97252	986.20117	15.45873	-151.66176	998.85492	25.65397	42.48895	988.80774	168.63707	-37.14685	992.18207	171.35579	165.03201	719.92041	116.15828	-165.53560	726.19513	119.22896	160.80348	320.02631	80.82697	-153.39702	267.60596	80.96606	192.46053	29.81532	-89.11465	-175.25562	20.00046	-82.82464	130.99287	44.92516	157.07570	-122.27800	51.76191	162.64044	-3.71026	2.55920	11.21524	-2.69680	-3.68787	5.37355	0.01500	1.26887	-0.04279	0.02848	1.21205	-0.06567	14.17405	5.55112	11.29960	14.10892	5.49775	11.29487
211	3.50000	-90.41460	927.23706	122.92764	86.48183	919.65509	116.57836	-104.55917	502.76880	90.31855	108.67995	495.49698	84.42458	-121.86517	108.93008	100.73178	132.44725	102.00717	95.27586	-157.72961	39.81991	-10.76775	173.98834	33.66113	-14.71402	156.89261	494.90463	92.51669	-153.03380	501.40625	96.53522	177.55650	105.98447	122.46474	-168.07169	112.13020	126.12108	-145.10498	1414.48962	94.78897	-195.22954	1409.19141	-181.28748	-195.43596	1446.37122	-419.53027	-184.55460	1439.47131	-506.58105	132.43576	1416.60486	99.35764	167.78412	1405.10864	-178.80975	157.78452	1419.56396	-419.29486	153.50644	1408.55957	-506.49838	2.94721	1020.65704	140.56537	4.08080	1114.67383	120.12560	2.37538	1181.89905	128.16031	-4.72370	1266.14111	156.00983	-14.73841	1397.58008	136.19958	-27904771620864.00000	0.00000	-27904805175296.00000	52.71550	1018.52393	138.77905	5.10328	1070.45276	141.17178	4.70577	1019.97430	190.37567	146.73792	986.01880	15.29786	-151.87186	998.81757	26.01573	42.52334	988.66351	168.65866	-37.10593	992.07654	171.51675	164.98337	719.77539	116.08868	-165.62985	726.12506	119.57348	160.79694	319.86490	80.93510	-153.50127	267.52655	81.15369	192.27603	29.71913	-89.06705	-175.64450	19.87492	-82.59817	131.23946	44.74789	157.23526	-122.11552	51.71795	162.74599	-3.66929	2.59753	11.20179	-2.70492	-3.71192	5.39330	0.05766	1.27066	-0.03778	0.02497	1.18915	-0.06327	14.16526	5.55942	11.31446	14.15344	5.51261	11.29228
212	3.51667	-90.68266	927.21344	123.31781	86.20525	919.48712	116.90540	-104.74797	502.75467	90.55125	108.65636	495.34732	84.68611	-121.99916	108.90878	100.78193	132.36252	101.85565	95.60386	-157.67117	39.71408	-10.72692	174.08263	33.60200	-14.37566	156.85864	494.77710	92.84130	-153.23357	501.38782	96.68082	177.43773	105.81260	122.85211	-168.25136	112.11103	126.08763	-145.06386	1414.37048	95.02908	-195.41089	1409.18311	-181.00900	-195.97882	1446.28223	-419.26379	-185.14209	1439.35669	-506.31812	132.57182	1416.69873	99.16204	167.66554	1405.37915	-179.04483	158.35075	1419.29224	-419.58939	154.08458	1408.61829	-506.83453	2.75936	1020.57532	140.83797	3.95408	1114.58081	120.34143	2.29463	1181.81226	128.34731	-4.74783	1266.06775	156.17603	-14.70960	1397.50952	136.34634	-27904771620864.00000	0.00000	-27904805175296.00000	52.52526	1018.40161	139.03389	4.95473	1070.36975	141.40047	4.53704	1019.93427	190.64815	146.47340	985.71600	15.54382	-152.12196	998.75836	26.36826	42.32146	988.57501	168.94331	-37.30397	992.05298	171.82983	164.80670	719.64655	116.47406	-165.88187	726.09882	119.76650	160.75648	319.70862	81.27842	-153.63026	267.50696	81.20964	192.47823	29.72914	-88.70572	-175.45973	19.76613	-82.58790	131.07921	44.55020	157.51904	-122.33603	51.73935	162.83508	-3.74991	2.68203	11.28889	-2.77040	-3.76971	5.27679	0.03387	1.23866	-0.03850	0.02830	1.18100	-0.06090	14.11349	5.57374	11.32586	14.21431	5.52304	11.29656
213	3.53333	-90.75510	927.16510	123.40701	86.11738	919.37292	116.65775	-104.92867	502.71039	90.63431	108.57050	495.20798	84.77145	-122.10931	108.86020	100.81765	132.53561	101.74280	96.07257	-157.89972	39.51247	-10.55809	174.15747	33.55197	-13.98309	156.78557	494.65073	92.85167	-153.40466	501.34955	96.84064	177.65167	105.73084	123.24857	-168.32401	112.07964	126.18958	-145.11191	1414.33411	95.31656	-195.45572	1409.26685	-180.72433	-196.31174	1446.22388	-419.00031	-185.54680	1439.01562	-506.04059	132.67818	1416.85583	99.04169	167.58005	1405.75952	-179.19827	158.80632	1419.15088	-419.79276	154.79468	1408.66199	-507.07245	2.75539	1020.48822	140.76756	3.93567	1114.47461	120.31373	2.28999	1181.67236	128.36678	-4.73615	1265.87390	156.27676	-14.75232	1397.30396	136.58969	-27904771620864.00000	0.00000	-27904805175296.00000	52.51695	1018.29596	138.86871	4.97073	1070.28174	141.33528	4.62727	1019.83704	190.57416	146.21834	985.59808	15.19459	-152.35100	998.75171	26.58766	42.35856	988.46759	168.79181	-37.25993	991.97522	171.82996	164.74277	719.54163	116.27681	-165.98653	726.06067	119.96144	160.77283	319.59763	81.46806	-153.79245	267.45758	81.32355	192.44379	29.73020	-88.34272	-175.76196	19.52656	-82.39022	131.39636	44.42262	157.97693	-122.35561	51.77084	162.94489	-3.69495	2.71073	11.30801	-2.76229	-3.78473	5.25990	0.02696	1.26803	-0.04297	0.03308	1.16450	-0.06303	14.03723	5.58323	11.32968	14.29859	5.50731	11.30367
